<svg xmlns="http://www.w3.org/2000/svg" display="none">

    <symbol id="location" viewBox="0 0 512 512">
        <g>
            <g>
                <path d="M256,0C161.896,0,85.333,76.563,85.333,170.667c0,28.25,7.063,56.26,20.49,81.104L246.667,506.5
			c1.875,3.396,5.448,5.5,9.333,5.5s7.458-2.104,9.333-5.5l140.896-254.813c13.375-24.76,20.438-52.771,20.438-81.021
			C426.667,76.563,350.104,0,256,0z M256,256c-47.052,0-85.333-38.281-85.333-85.333c0-47.052,38.281-85.333,85.333-85.333
			s85.333,38.281,85.333,85.333C341.333,217.719,303.052,256,256,256z"/>
            </g>
        </g>
    </symbol>

    <symbol id="search" viewBox="0 0 512.005 512.005">
        <g>
            <g>
                <path d="M505.749,475.587l-145.6-145.6c28.203-34.837,45.184-79.104,45.184-127.317c0-111.744-90.923-202.667-202.667-202.667
			S0,90.925,0,202.669s90.923,202.667,202.667,202.667c48.213,0,92.48-16.981,127.317-45.184l145.6,145.6
			c4.16,4.16,9.621,6.251,15.083,6.251s10.923-2.091,15.083-6.251C514.091,497.411,514.091,483.928,505.749,475.587z
			 M202.667,362.669c-88.235,0-160-71.765-160-160s71.765-160,160-160s160,71.765,160,160S290.901,362.669,202.667,362.669z"/>
            </g>
        </g>
    </symbol>


    <symbol id="calendar" viewBox="0 0 477.867 477.867">
        <g>
            <g>
                <path d="M426.667,51.2h-51.2V17.067C375.467,7.641,367.826,0,358.4,0s-17.067,7.641-17.067,17.067V51.2h-204.8V17.067
			C136.533,7.641,128.892,0,119.467,0S102.4,7.641,102.4,17.067V51.2H51.2C22.923,51.2,0,74.123,0,102.4v324.267
			c0,28.277,22.923,51.2,51.2,51.2h375.467c28.277,0,51.2-22.923,51.2-51.2V102.4C477.867,74.123,454.944,51.2,426.667,51.2z
			 M443.733,426.667c0,9.426-7.641,17.067-17.067,17.067H51.2c-9.426,0-17.067-7.641-17.067-17.067V204.8h409.6V426.667z
			 M443.733,170.667h-409.6V102.4c0-9.426,7.641-17.067,17.067-17.067h51.2v34.133c0,9.426,7.641,17.067,17.067,17.067
			s17.067-7.641,17.067-17.067V85.333h204.8v34.133c0,9.426,7.641,17.067,17.067,17.067s17.067-7.641,17.067-17.067V85.333h51.2
			c9.426,0,17.067,7.641,17.067,17.067V170.667z"/>
            </g>
        </g>
        <g>
            <g>
                <path d="M352.98,243.934c-6.614-6.388-17.099-6.388-23.712,0L204.8,368.401l-56.201-56.201c-6.78-6.548-17.584-6.36-24.132,0.419
			c-6.388,6.614-6.388,17.099,0,23.713l68.267,68.267c6.665,6.662,17.468,6.662,24.132,0l136.533-136.533
			C359.947,261.286,359.759,250.482,352.98,243.934z"/>
            </g>
        </g>
    </symbol>

    <symbol id="arrow-right" viewBox="0 0 490.8 490.8">
        <path d="M135.685,3.128c-4.237-4.093-10.99-3.975-15.083,0.262c-3.992,4.134-3.992,10.687,0,14.82
	l227.115,227.136L120.581,472.461c-4.237,4.093-4.354,10.845-0.262,15.083c4.093,4.237,10.845,4.354,15.083,0.262
	c0.089-0.086,0.176-0.173,0.262-0.262l234.667-234.667c4.164-4.165,4.164-10.917,0-15.083L135.685,3.128z"/>
        <path d="M128.133,490.68c-5.891,0.011-10.675-4.757-10.686-10.648c-0.005-2.84,1.123-5.565,3.134-7.571l227.136-227.115
	L120.581,18.232c-4.171-4.171-4.171-10.933,0-15.104c4.171-4.171,10.933-4.171,15.104,0l234.667,234.667
	c4.164,4.165,4.164,10.917,0,15.083L135.685,487.544C133.685,489.551,130.967,490.68,128.133,490.68z"/>
    </symbol>


</svg>