<svg width="26" height="26" viewBox="0 0 26 26" fill="none" xmlns="http://www.w3.org/2000/svg">
<g clip-path="url(#clip0)">
<path d="M22.23 3.73642C19.76 1.34875 16.51 0 13.0488 0C3.11458 0 -3.12325 10.7629 1.83733 19.3245L0 26L6.86292 24.2103C9.85292 25.8256 12.3023 25.6826 13.0553 25.7779C24.5743 25.7779 30.3084 11.8419 22.2138 3.77867L22.23 3.73642Z" fill="white"/>
<path d="M13.0726 23.5636L13.0661 23.5625H13.0487C9.60158 23.5625 7.39916 21.9299 7.1825 21.8357L3.12 22.8919L4.20875 18.9432L3.94983 18.5369C2.87733 16.8296 2.3075 14.8633 2.3075 12.8386C2.3075 3.31282 13.9479 -1.4506 20.6841 5.28232C27.404 11.9448 22.6861 23.5636 13.0726 23.5636Z" fill="#4CAF50"/>
<path d="M18.9659 15.4994L18.9561 15.5806C18.63 15.4181 17.0419 14.6414 16.7461 14.5341C16.082 14.2882 16.2695 14.4951 14.9944 15.9554C14.8048 16.1667 14.6163 16.1829 14.2945 16.0367C13.9695 15.8742 12.9263 15.5329 11.6913 14.4279C10.7293 13.5667 10.0836 12.5104 9.89297 12.1854C9.57555 11.6373 10.2396 11.5593 10.8441 10.4153C10.9525 10.1878 10.8972 10.009 10.817 9.8476C10.7358 9.6851 10.089 8.0926 9.81822 7.45777C9.55822 6.8251 9.29063 6.90527 9.09022 6.90527C8.46622 6.8511 8.01013 6.85977 7.60822 7.27794C5.85972 9.19977 6.30063 11.1823 7.79672 13.2904C10.7369 17.1384 12.3034 17.8469 15.1677 18.8306C15.9412 19.0765 16.6465 19.0419 17.2044 18.9617C17.8262 18.8631 19.1186 18.1806 19.3884 17.4169C19.6646 16.6531 19.6646 16.0194 19.5834 15.8731C19.5032 15.7269 19.2909 15.6456 18.9659 15.4994Z" fill="#FAFAFA"/>
</g>
<defs>
<clipPath id="clip0">
<rect width="26" height="26" fill="white"/>
</clipPath>
</defs>
</svg>
